<mxfile host="app.diagrams.net" modified="2022-04-10T09:15:58.099Z" agent="5.0 (Windows NT 10.0; Win64; x64) AppleWebKit/537.36 (KHTML, like Gecko) Chrome/100.0.4896.75 Safari/537.36" etag="i4EWI-tMhkgFufC7zQYB" version="17.4.2" type="github">
  <diagram id="pc_crraCxexSfMzITHvz" name="Page-1">
    <mxGraphModel dx="1185" dy="770" grid="1" gridSize="10" guides="1" tooltips="1" connect="1" arrows="1" fold="1" page="1" pageScale="1" pageWidth="827" pageHeight="1169" math="0" shadow="0">
      <root>
        <mxCell id="0" />
        <mxCell id="1" parent="0" />
        <mxCell id="RvG5kxUIYtiHQHu7Exc0-1" value="RENT_INFO" style="swimlane;fontStyle=2;align=center;verticalAlign=top;childLayout=stackLayout;horizontal=1;startSize=26;horizontalStack=0;resizeParent=1;resizeLast=0;collapsible=1;marginBottom=0;rounded=0;shadow=0;strokeWidth=1;" vertex="1" parent="1">
          <mxGeometry x="220" y="490" width="160" height="190" as="geometry">
            <mxRectangle x="230" y="140" width="160" height="26" as="alternateBounds" />
          </mxGeometry>
        </mxCell>
        <mxCell id="RvG5kxUIYtiHQHu7Exc0-2" value="rent_Id" style="text;align=left;verticalAlign=top;spacingLeft=4;spacingRight=4;overflow=hidden;rotatable=0;points=[[0,0.5],[1,0.5]];portConstraint=eastwest;" vertex="1" parent="RvG5kxUIYtiHQHu7Exc0-1">
          <mxGeometry y="26" width="160" height="26" as="geometry" />
        </mxCell>
        <mxCell id="RvG5kxUIYtiHQHu7Exc0-3" value="" style="line;html=1;strokeWidth=1;align=left;verticalAlign=middle;spacingTop=-1;spacingLeft=3;spacingRight=3;rotatable=0;labelPosition=right;points=[];portConstraint=eastwest;" vertex="1" parent="RvG5kxUIYtiHQHu7Exc0-1">
          <mxGeometry y="52" width="160" height="8" as="geometry" />
        </mxCell>
        <mxCell id="RvG5kxUIYtiHQHu7Exc0-4" value="car_Id" style="text;align=left;verticalAlign=top;spacingLeft=4;spacingRight=4;overflow=hidden;rotatable=0;points=[[0,0.5],[1,0.5]];portConstraint=eastwest;rounded=0;shadow=0;html=0;" vertex="1" parent="RvG5kxUIYtiHQHu7Exc0-1">
          <mxGeometry y="60" width="160" height="26" as="geometry" />
        </mxCell>
        <mxCell id="RvG5kxUIYtiHQHu7Exc0-5" value="" style="line;html=1;strokeWidth=1;align=left;verticalAlign=middle;spacingTop=-1;spacingLeft=3;spacingRight=3;rotatable=0;labelPosition=right;points=[];portConstraint=eastwest;" vertex="1" parent="RvG5kxUIYtiHQHu7Exc0-1">
          <mxGeometry y="86" width="160" height="8" as="geometry" />
        </mxCell>
        <mxCell id="RvG5kxUIYtiHQHu7Exc0-6" value="client_Id" style="text;align=left;verticalAlign=top;spacingLeft=4;spacingRight=4;overflow=hidden;rotatable=0;points=[[0,0.5],[1,0.5]];portConstraint=eastwest;rounded=0;shadow=0;html=0;" vertex="1" parent="RvG5kxUIYtiHQHu7Exc0-1">
          <mxGeometry y="94" width="160" height="26" as="geometry" />
        </mxCell>
        <mxCell id="RvG5kxUIYtiHQHu7Exc0-7" value="" style="line;html=1;strokeWidth=1;align=left;verticalAlign=middle;spacingTop=-1;spacingLeft=3;spacingRight=3;rotatable=0;labelPosition=right;points=[];portConstraint=eastwest;" vertex="1" parent="RvG5kxUIYtiHQHu7Exc0-1">
          <mxGeometry y="120" width="160" height="8" as="geometry" />
        </mxCell>
        <mxCell id="RvG5kxUIYtiHQHu7Exc0-8" value="res_From" style="text;align=left;verticalAlign=top;spacingLeft=4;spacingRight=4;overflow=hidden;rotatable=0;points=[[0,0.5],[1,0.5]];portConstraint=eastwest;" vertex="1" parent="RvG5kxUIYtiHQHu7Exc0-1">
          <mxGeometry y="128" width="160" height="26" as="geometry" />
        </mxCell>
        <mxCell id="RvG5kxUIYtiHQHu7Exc0-9" value="" style="line;html=1;strokeWidth=1;align=left;verticalAlign=middle;spacingTop=-1;spacingLeft=3;spacingRight=3;rotatable=0;labelPosition=right;points=[];portConstraint=eastwest;" vertex="1" parent="RvG5kxUIYtiHQHu7Exc0-1">
          <mxGeometry y="154" width="160" height="8" as="geometry" />
        </mxCell>
        <mxCell id="RvG5kxUIYtiHQHu7Exc0-10" value="res_To" style="text;align=left;verticalAlign=top;spacingLeft=4;spacingRight=4;overflow=hidden;rotatable=0;points=[[0,0.5],[1,0.5]];portConstraint=eastwest;" vertex="1" parent="RvG5kxUIYtiHQHu7Exc0-1">
          <mxGeometry y="162" width="160" height="26" as="geometry" />
        </mxCell>
        <mxCell id="RvG5kxUIYtiHQHu7Exc0-11" value="CLIENT" style="swimlane;fontStyle=0;align=center;verticalAlign=top;childLayout=stackLayout;horizontal=1;startSize=26;horizontalStack=0;resizeParent=1;resizeLast=0;collapsible=1;marginBottom=0;rounded=0;shadow=0;strokeWidth=1;" vertex="1" parent="1">
          <mxGeometry x="40" y="640" width="160" height="190" as="geometry">
            <mxRectangle x="130" y="380" width="160" height="26" as="alternateBounds" />
          </mxGeometry>
        </mxCell>
        <mxCell id="RvG5kxUIYtiHQHu7Exc0-12" value="client_Id" style="text;align=left;verticalAlign=top;spacingLeft=4;spacingRight=4;overflow=hidden;rotatable=0;points=[[0,0.5],[1,0.5]];portConstraint=eastwest;" vertex="1" parent="RvG5kxUIYtiHQHu7Exc0-11">
          <mxGeometry y="26" width="160" height="26" as="geometry" />
        </mxCell>
        <mxCell id="RvG5kxUIYtiHQHu7Exc0-13" value="first_Name" style="text;align=left;verticalAlign=top;spacingLeft=4;spacingRight=4;overflow=hidden;rotatable=0;points=[[0,0.5],[1,0.5]];portConstraint=eastwest;rounded=0;shadow=0;html=0;" vertex="1" parent="RvG5kxUIYtiHQHu7Exc0-11">
          <mxGeometry y="52" width="160" height="26" as="geometry" />
        </mxCell>
        <mxCell id="RvG5kxUIYtiHQHu7Exc0-14" value="" style="line;html=1;strokeWidth=1;align=left;verticalAlign=middle;spacingTop=-1;spacingLeft=3;spacingRight=3;rotatable=0;labelPosition=right;points=[];portConstraint=eastwest;" vertex="1" parent="RvG5kxUIYtiHQHu7Exc0-11">
          <mxGeometry y="78" width="160" height="8" as="geometry" />
        </mxCell>
        <mxCell id="RvG5kxUIYtiHQHu7Exc0-15" value="last_Name" style="text;align=left;verticalAlign=top;spacingLeft=4;spacingRight=4;overflow=hidden;rotatable=0;points=[[0,0.5],[1,0.5]];portConstraint=eastwest;fontStyle=4" vertex="1" parent="RvG5kxUIYtiHQHu7Exc0-11">
          <mxGeometry y="86" width="160" height="26" as="geometry" />
        </mxCell>
        <mxCell id="RvG5kxUIYtiHQHu7Exc0-16" value="birth_Date" style="text;align=left;verticalAlign=top;spacingLeft=4;spacingRight=4;overflow=hidden;rotatable=0;points=[[0,0.5],[1,0.5]];portConstraint=eastwest;" vertex="1" parent="RvG5kxUIYtiHQHu7Exc0-11">
          <mxGeometry y="112" width="160" height="28" as="geometry" />
        </mxCell>
        <mxCell id="RvG5kxUIYtiHQHu7Exc0-17" value="its_Adult" style="text;align=left;verticalAlign=top;spacingLeft=4;spacingRight=4;overflow=hidden;rotatable=0;points=[[0,0.5],[1,0.5]];portConstraint=eastwest;" vertex="1" parent="RvG5kxUIYtiHQHu7Exc0-11">
          <mxGeometry y="140" width="160" height="28" as="geometry" />
        </mxCell>
        <mxCell id="RvG5kxUIYtiHQHu7Exc0-48" style="edgeStyle=orthogonalEdgeStyle;rounded=0;orthogonalLoop=1;jettySize=auto;html=1;entryX=0;entryY=0.706;entryDx=0;entryDy=0;entryPerimeter=0;strokeColor=#0000FF;" edge="1" parent="1" target="RvG5kxUIYtiHQHu7Exc0-42">
          <mxGeometry relative="1" as="geometry">
            <mxPoint x="380" y="620" as="sourcePoint" />
            <Array as="points">
              <mxPoint x="440" y="620" />
              <mxPoint x="440" y="397" />
            </Array>
          </mxGeometry>
        </mxCell>
        <mxCell id="RvG5kxUIYtiHQHu7Exc0-18" value="CAR_STATUS" style="swimlane;fontStyle=0;align=center;verticalAlign=top;childLayout=stackLayout;horizontal=1;startSize=26;horizontalStack=0;resizeParent=1;resizeLast=0;collapsible=1;marginBottom=0;rounded=0;shadow=0;strokeWidth=1;" vertex="1" parent="1">
          <mxGeometry x="500" y="700" width="160" height="180" as="geometry">
            <mxRectangle x="340" y="380" width="170" height="26" as="alternateBounds" />
          </mxGeometry>
        </mxCell>
        <mxCell id="RvG5kxUIYtiHQHu7Exc0-19" value="CarStatus_Id" style="text;align=left;verticalAlign=top;spacingLeft=4;spacingRight=4;overflow=hidden;rotatable=0;points=[[0,0.5],[1,0.5]];portConstraint=eastwest;" vertex="1" parent="RvG5kxUIYtiHQHu7Exc0-18">
          <mxGeometry y="26" width="160" height="26" as="geometry" />
        </mxCell>
        <mxCell id="RvG5kxUIYtiHQHu7Exc0-20" value="" style="line;html=1;strokeWidth=1;align=left;verticalAlign=middle;spacingTop=-1;spacingLeft=3;spacingRight=3;rotatable=0;labelPosition=right;points=[];portConstraint=eastwest;" vertex="1" parent="RvG5kxUIYtiHQHu7Exc0-18">
          <mxGeometry y="52" width="160" height="8" as="geometry" />
        </mxCell>
        <mxCell id="RvG5kxUIYtiHQHu7Exc0-21" value="status_Car" style="text;align=left;verticalAlign=top;spacingLeft=4;spacingRight=4;overflow=hidden;rotatable=0;points=[[0,0.5],[1,0.5]];portConstraint=eastwest;" vertex="1" parent="RvG5kxUIYtiHQHu7Exc0-18">
          <mxGeometry y="60" width="160" height="26" as="geometry" />
        </mxCell>
        <mxCell id="RvG5kxUIYtiHQHu7Exc0-22" value="res_From" style="text;align=left;verticalAlign=top;spacingLeft=4;spacingRight=4;overflow=hidden;rotatable=0;points=[[0,0.5],[1,0.5]];portConstraint=eastwest;" vertex="1" parent="RvG5kxUIYtiHQHu7Exc0-18">
          <mxGeometry y="86" width="160" height="26" as="geometry" />
        </mxCell>
        <mxCell id="RvG5kxUIYtiHQHu7Exc0-23" value="res_To" style="text;align=left;verticalAlign=top;spacingLeft=4;spacingRight=4;overflow=hidden;rotatable=0;points=[[0,0.5],[1,0.5]];portConstraint=eastwest;" vertex="1" parent="RvG5kxUIYtiHQHu7Exc0-18">
          <mxGeometry y="112" width="160" height="26" as="geometry" />
        </mxCell>
        <mxCell id="RvG5kxUIYtiHQHu7Exc0-24" value="CAR" style="swimlane;fontStyle=0;align=center;verticalAlign=top;childLayout=stackLayout;horizontal=1;startSize=26;horizontalStack=0;resizeParent=1;resizeLast=0;collapsible=1;marginBottom=0;rounded=0;shadow=0;strokeWidth=1;" vertex="1" parent="1">
          <mxGeometry x="650" y="500" width="160" height="160" as="geometry">
            <mxRectangle x="550" y="140" width="160" height="26" as="alternateBounds" />
          </mxGeometry>
        </mxCell>
        <mxCell id="RvG5kxUIYtiHQHu7Exc0-25" value="car_Id" style="text;align=left;verticalAlign=top;spacingLeft=4;spacingRight=4;overflow=hidden;rotatable=0;points=[[0,0.5],[1,0.5]];portConstraint=eastwest;" vertex="1" parent="RvG5kxUIYtiHQHu7Exc0-24">
          <mxGeometry y="26" width="160" height="26" as="geometry" />
        </mxCell>
        <mxCell id="RvG5kxUIYtiHQHu7Exc0-26" value="brand" style="text;align=left;verticalAlign=top;spacingLeft=4;spacingRight=4;overflow=hidden;rotatable=0;points=[[0,0.5],[1,0.5]];portConstraint=eastwest;rounded=0;shadow=0;html=0;" vertex="1" parent="RvG5kxUIYtiHQHu7Exc0-24">
          <mxGeometry y="52" width="160" height="26" as="geometry" />
        </mxCell>
        <mxCell id="RvG5kxUIYtiHQHu7Exc0-27" value="model" style="text;align=left;verticalAlign=top;spacingLeft=4;spacingRight=4;overflow=hidden;rotatable=0;points=[[0,0.5],[1,0.5]];portConstraint=eastwest;rounded=0;shadow=0;html=0;" vertex="1" parent="RvG5kxUIYtiHQHu7Exc0-24">
          <mxGeometry y="78" width="160" height="26" as="geometry" />
        </mxCell>
        <mxCell id="RvG5kxUIYtiHQHu7Exc0-28" value="color" style="text;align=left;verticalAlign=top;spacingLeft=4;spacingRight=4;overflow=hidden;rotatable=0;points=[[0,0.5],[1,0.5]];portConstraint=eastwest;rounded=0;shadow=0;html=0;" vertex="1" parent="RvG5kxUIYtiHQHu7Exc0-24">
          <mxGeometry y="104" width="160" height="26" as="geometry" />
        </mxCell>
        <mxCell id="RvG5kxUIYtiHQHu7Exc0-29" value="reg_Nr" style="text;align=left;verticalAlign=top;spacingLeft=4;spacingRight=4;overflow=hidden;rotatable=0;points=[[0,0.5],[1,0.5]];portConstraint=eastwest;rounded=0;shadow=0;html=0;" vertex="1" parent="RvG5kxUIYtiHQHu7Exc0-24">
          <mxGeometry y="130" width="160" height="26" as="geometry" />
        </mxCell>
        <mxCell id="RvG5kxUIYtiHQHu7Exc0-30" style="edgeStyle=orthogonalEdgeStyle;rounded=0;orthogonalLoop=1;jettySize=auto;html=1;entryX=0;entryY=0.5;entryDx=0;entryDy=0;" edge="1" parent="1" source="RvG5kxUIYtiHQHu7Exc0-12" target="RvG5kxUIYtiHQHu7Exc0-6">
          <mxGeometry relative="1" as="geometry">
            <Array as="points">
              <mxPoint x="20" y="679" />
              <mxPoint x="20" y="590" />
              <mxPoint x="220" y="590" />
            </Array>
          </mxGeometry>
        </mxCell>
        <mxCell id="RvG5kxUIYtiHQHu7Exc0-31" style="edgeStyle=orthogonalEdgeStyle;rounded=0;orthogonalLoop=1;jettySize=auto;html=1;exitX=0;exitY=0.5;exitDx=0;exitDy=0;entryX=1;entryY=0.5;entryDx=0;entryDy=0;" edge="1" parent="1" source="RvG5kxUIYtiHQHu7Exc0-25" target="RvG5kxUIYtiHQHu7Exc0-4">
          <mxGeometry relative="1" as="geometry" />
        </mxCell>
        <mxCell id="RvG5kxUIYtiHQHu7Exc0-32" style="edgeStyle=orthogonalEdgeStyle;rounded=0;orthogonalLoop=1;jettySize=auto;html=1;exitX=0;exitY=0.5;exitDx=0;exitDy=0;entryX=1;entryY=0.5;entryDx=0;entryDy=0;" edge="1" parent="1" source="RvG5kxUIYtiHQHu7Exc0-22" target="RvG5kxUIYtiHQHu7Exc0-8">
          <mxGeometry relative="1" as="geometry" />
        </mxCell>
        <mxCell id="RvG5kxUIYtiHQHu7Exc0-33" style="edgeStyle=orthogonalEdgeStyle;rounded=0;orthogonalLoop=1;jettySize=auto;html=1;exitX=0;exitY=0.5;exitDx=0;exitDy=0;entryX=1;entryY=0.5;entryDx=0;entryDy=0;" edge="1" parent="1" source="RvG5kxUIYtiHQHu7Exc0-23" target="RvG5kxUIYtiHQHu7Exc0-10">
          <mxGeometry relative="1" as="geometry">
            <Array as="points">
              <mxPoint x="500" y="820" />
              <mxPoint x="410" y="820" />
              <mxPoint x="410" y="665" />
            </Array>
          </mxGeometry>
        </mxCell>
        <mxCell id="RvG5kxUIYtiHQHu7Exc0-53" style="edgeStyle=orthogonalEdgeStyle;rounded=0;orthogonalLoop=1;jettySize=auto;html=1;strokeColor=#0000FF;entryX=1;entryY=0.5;entryDx=0;entryDy=0;exitX=0.997;exitY=0.856;exitDx=0;exitDy=0;exitPerimeter=0;" edge="1" parent="1" source="RvG5kxUIYtiHQHu7Exc0-42" target="RvG5kxUIYtiHQHu7Exc0-54">
          <mxGeometry relative="1" as="geometry">
            <mxPoint x="800" y="120" as="targetPoint" />
          </mxGeometry>
        </mxCell>
        <mxCell id="RvG5kxUIYtiHQHu7Exc0-42" value="&lt;p style=&quot;margin: 0px ; margin-top: 4px ; text-align: center ; text-decoration: underline&quot;&gt;&lt;b&gt;&quot;sout&quot; status wypozyczeń&lt;/b&gt;&lt;/p&gt;&lt;hr&gt;&lt;p style=&quot;margin: 0px ; margin-left: 8px&quot;&gt;&amp;lt;lastName&amp;gt; = &lt;i&gt;Kowalski&lt;/i&gt;&lt;br&gt;&amp;lt;firstName&amp;gt; = &lt;i&gt;Jan&lt;/i&gt;&lt;br&gt;&amp;lt;brand&amp;gt; = &lt;i&gt;Skoda&lt;/i&gt;&lt;/p&gt;&lt;p style=&quot;margin: 0px ; margin-left: 8px&quot;&gt;&amp;lt;model&amp;gt; =&amp;nbsp;&lt;i&gt;Fabia&lt;/i&gt;&lt;i&gt;&lt;br&gt;&lt;/i&gt;&lt;/p&gt;&lt;p style=&quot;margin: 0px ; margin-left: 8px&quot;&gt;&amp;lt;color&amp;gt; =&amp;nbsp;&lt;i&gt;niebieski&lt;/i&gt;&lt;i&gt;&lt;br&gt;&lt;/i&gt;&lt;/p&gt;&lt;p style=&quot;margin: 0px ; margin-left: 8px&quot;&gt;&amp;lt;regNr&amp;gt; =&amp;nbsp;&lt;i&gt;2022.04.06&lt;/i&gt;&lt;i&gt;&lt;br&gt;&lt;/i&gt;&lt;/p&gt;&lt;p style=&quot;margin: 0px ; margin-left: 8px&quot;&gt;&amp;lt;resFrom&amp;gt; = &lt;i&gt;2022.04.06&lt;/i&gt;&lt;br&gt;&lt;/p&gt;&lt;p style=&quot;margin: 0px ; margin-left: 8px&quot;&gt;&amp;lt;resTo&amp;gt; =&amp;nbsp;&lt;i&gt;2022.04.22&lt;/i&gt;&lt;i&gt;&lt;br&gt;&lt;/i&gt;&lt;/p&gt;&lt;p style=&quot;margin: 0px ; margin-left: 8px&quot;&gt;&lt;i&gt;&amp;lt;outOfTerm&amp;gt; = &quot;false&quot; / przekroczono termin zwrotu&lt;/i&gt;&lt;/p&gt;" style="verticalAlign=top;align=left;overflow=fill;fontSize=12;fontFamily=Helvetica;html=1;" vertex="1" parent="1">
          <mxGeometry x="470" y="270" width="310" height="180" as="geometry" />
        </mxCell>
        <mxCell id="RvG5kxUIYtiHQHu7Exc0-43" style="edgeStyle=orthogonalEdgeStyle;rounded=0;orthogonalLoop=1;jettySize=auto;html=1;exitX=0;exitY=0.5;exitDx=0;exitDy=0;entryX=0;entryY=0.438;entryDx=0;entryDy=0;entryPerimeter=0;strokeColor=#00CC00;" edge="1" parent="1" source="RvG5kxUIYtiHQHu7Exc0-26" target="RvG5kxUIYtiHQHu7Exc0-42">
          <mxGeometry relative="1" as="geometry" />
        </mxCell>
        <mxCell id="RvG5kxUIYtiHQHu7Exc0-44" style="edgeStyle=orthogonalEdgeStyle;rounded=0;orthogonalLoop=1;jettySize=auto;html=1;exitX=0;exitY=0.5;exitDx=0;exitDy=0;entryX=0;entryY=0.5;entryDx=0;entryDy=0;strokeColor=#00CC00;" edge="1" parent="1" source="RvG5kxUIYtiHQHu7Exc0-27" target="RvG5kxUIYtiHQHu7Exc0-42">
          <mxGeometry relative="1" as="geometry" />
        </mxCell>
        <mxCell id="RvG5kxUIYtiHQHu7Exc0-45" style="edgeStyle=orthogonalEdgeStyle;rounded=0;orthogonalLoop=1;jettySize=auto;html=1;exitX=0;exitY=0.5;exitDx=0;exitDy=0;entryX=0.003;entryY=0.556;entryDx=0;entryDy=0;entryPerimeter=0;strokeColor=#00CC00;" edge="1" parent="1" source="RvG5kxUIYtiHQHu7Exc0-28" target="RvG5kxUIYtiHQHu7Exc0-42">
          <mxGeometry relative="1" as="geometry" />
        </mxCell>
        <mxCell id="RvG5kxUIYtiHQHu7Exc0-47" style="edgeStyle=orthogonalEdgeStyle;rounded=0;orthogonalLoop=1;jettySize=auto;html=1;entryX=0;entryY=0.624;entryDx=0;entryDy=0;entryPerimeter=0;strokeColor=#00CC00;" edge="1" parent="1" source="RvG5kxUIYtiHQHu7Exc0-29" target="RvG5kxUIYtiHQHu7Exc0-42">
          <mxGeometry relative="1" as="geometry" />
        </mxCell>
        <mxCell id="RvG5kxUIYtiHQHu7Exc0-49" style="edgeStyle=orthogonalEdgeStyle;rounded=0;orthogonalLoop=1;jettySize=auto;html=1;entryX=0;entryY=0.789;entryDx=0;entryDy=0;entryPerimeter=0;strokeColor=#0000FF;exitX=1;exitY=0.5;exitDx=0;exitDy=0;" edge="1" parent="1" source="RvG5kxUIYtiHQHu7Exc0-10" target="RvG5kxUIYtiHQHu7Exc0-42">
          <mxGeometry relative="1" as="geometry">
            <mxPoint x="380" y="630" as="sourcePoint" />
            <Array as="points">
              <mxPoint x="380" y="650" />
              <mxPoint x="440" y="650" />
              <mxPoint x="440" y="412" />
            </Array>
          </mxGeometry>
        </mxCell>
        <mxCell id="RvG5kxUIYtiHQHu7Exc0-54" value="if&lt;br&gt;systemdate&amp;gt;resTo" style="rhombus;whiteSpace=wrap;html=1;" vertex="1" parent="1">
          <mxGeometry x="690" y="140" width="80" height="80" as="geometry" />
        </mxCell>
        <mxCell id="RvG5kxUIYtiHQHu7Exc0-55" style="edgeStyle=orthogonalEdgeStyle;rounded=0;orthogonalLoop=1;jettySize=auto;html=1;exitX=0;exitY=0.5;exitDx=0;exitDy=0;strokeColor=#0000FF;" edge="1" parent="1" source="RvG5kxUIYtiHQHu7Exc0-12">
          <mxGeometry relative="1" as="geometry">
            <mxPoint x="40" y="679" as="targetPoint" />
          </mxGeometry>
        </mxCell>
        <mxCell id="RvG5kxUIYtiHQHu7Exc0-56" style="edgeStyle=orthogonalEdgeStyle;rounded=0;orthogonalLoop=1;jettySize=auto;html=1;strokeColor=#FF0000;exitX=0;exitY=0.5;exitDx=0;exitDy=0;" edge="1" parent="1" source="RvG5kxUIYtiHQHu7Exc0-15" target="RvG5kxUIYtiHQHu7Exc0-42">
          <mxGeometry relative="1" as="geometry">
            <mxPoint x="420" y="330" as="targetPoint" />
            <Array as="points">
              <mxPoint x="10" y="739" />
              <mxPoint x="10" y="310" />
            </Array>
          </mxGeometry>
        </mxCell>
        <mxCell id="RvG5kxUIYtiHQHu7Exc0-57" style="edgeStyle=orthogonalEdgeStyle;rounded=0;orthogonalLoop=1;jettySize=auto;html=1;strokeColor=#FF0000;entryX=0;entryY=0.333;entryDx=0;entryDy=0;entryPerimeter=0;" edge="1" parent="1" source="RvG5kxUIYtiHQHu7Exc0-13" target="RvG5kxUIYtiHQHu7Exc0-42">
          <mxGeometry relative="1" as="geometry">
            <mxPoint x="100" y="180" as="targetPoint" />
            <Array as="points">
              <mxPoint x="10" y="705" />
              <mxPoint x="10" y="330" />
            </Array>
          </mxGeometry>
        </mxCell>
        <mxCell id="RvG5kxUIYtiHQHu7Exc0-64" style="edgeStyle=orthogonalEdgeStyle;rounded=0;orthogonalLoop=1;jettySize=auto;html=1;entryX=0.468;entryY=0.009;entryDx=0;entryDy=0;entryPerimeter=0;strokeColor=#000000;" edge="1" parent="1" source="RvG5kxUIYtiHQHu7Exc0-63" target="RvG5kxUIYtiHQHu7Exc0-42">
          <mxGeometry relative="1" as="geometry">
            <Array as="points">
              <mxPoint x="615" y="100" />
            </Array>
          </mxGeometry>
        </mxCell>
        <mxCell id="RvG5kxUIYtiHQHu7Exc0-65" style="edgeStyle=orthogonalEdgeStyle;rounded=0;orthogonalLoop=1;jettySize=auto;html=1;strokeColor=#000000;entryX=0.552;entryY=-0.022;entryDx=0;entryDy=0;entryPerimeter=0;" edge="1" parent="1" source="RvG5kxUIYtiHQHu7Exc0-63" target="RvG5kxUIYtiHQHu7Exc0-1">
          <mxGeometry relative="1" as="geometry">
            <mxPoint x="310" y="480" as="targetPoint" />
            <Array as="points">
              <mxPoint x="308" y="80" />
            </Array>
          </mxGeometry>
        </mxCell>
        <mxCell id="RvG5kxUIYtiHQHu7Exc0-66" style="edgeStyle=orthogonalEdgeStyle;rounded=0;orthogonalLoop=1;jettySize=auto;html=1;entryX=0.208;entryY=-0.026;entryDx=0;entryDy=0;entryPerimeter=0;strokeColor=#000000;" edge="1" parent="1" source="RvG5kxUIYtiHQHu7Exc0-63" target="RvG5kxUIYtiHQHu7Exc0-24">
          <mxGeometry relative="1" as="geometry">
            <Array as="points">
              <mxPoint x="420" y="140" />
              <mxPoint x="420" y="480" />
              <mxPoint x="683" y="480" />
            </Array>
          </mxGeometry>
        </mxCell>
        <mxCell id="RvG5kxUIYtiHQHu7Exc0-67" style="edgeStyle=orthogonalEdgeStyle;rounded=0;orthogonalLoop=1;jettySize=auto;html=1;entryX=0.625;entryY=0;entryDx=0;entryDy=0;entryPerimeter=0;strokeColor=#000000;" edge="1" parent="1" source="RvG5kxUIYtiHQHu7Exc0-63" target="RvG5kxUIYtiHQHu7Exc0-11">
          <mxGeometry relative="1" as="geometry">
            <Array as="points">
              <mxPoint x="260" y="80" />
              <mxPoint x="260" y="435" />
              <mxPoint x="140" y="435" />
            </Array>
          </mxGeometry>
        </mxCell>
        <mxCell id="RvG5kxUIYtiHQHu7Exc0-68" style="edgeStyle=orthogonalEdgeStyle;rounded=0;orthogonalLoop=1;jettySize=auto;html=1;entryX=0.182;entryY=0.005;entryDx=0;entryDy=0;entryPerimeter=0;strokeColor=#000000;" edge="1" parent="1" source="RvG5kxUIYtiHQHu7Exc0-63" target="RvG5kxUIYtiHQHu7Exc0-18">
          <mxGeometry relative="1" as="geometry">
            <Array as="points">
              <mxPoint x="400" y="80" />
              <mxPoint x="400" y="701" />
            </Array>
          </mxGeometry>
        </mxCell>
        <mxCell id="RvG5kxUIYtiHQHu7Exc0-63" value="«interface»&lt;br&gt;&lt;b&gt;&quot;main&quot;&lt;br&gt;1. wprowadz wypożyczenie&lt;br&gt;2. sprawdz status wypożyczeń&lt;br&gt;4. zmień okres wypozyczenia&lt;br&gt;3. usuń wypozyczenie&lt;br&gt;5. wprowadź nowy samochód&lt;br&gt;6. sprawdz stan samochodów&lt;br&gt;7. usuń samochód ze stanu&lt;br&gt;8. koniec programu&lt;br&gt;&lt;/b&gt;" style="html=1;" vertex="1" parent="1">
          <mxGeometry x="30" y="10" width="190" height="220" as="geometry" />
        </mxCell>
      </root>
    </mxGraphModel>
  </diagram>
</mxfile>
